<?xml version="1.0" encoding="utf-8"?>
<!-- Generator: Adobe Illustrator 18.1.1, SVG Export Plug-In . SVG Version: 6.00 Build 0)  -->
<svg version="1.1"
	 id="svg2" xmlns:dc="http://purl.org/dc/elements/1.1/" xmlns:svg="http://www.w3.org/2000/svg" xmlns:ns1="http://sozi.baierouge.fr" xmlns:inkscape="http://www.inkscape.org/namespaces/inkscape" xmlns:rdf="http://www.w3.org/1999/02/22-rdf-syntax-ns#" xmlns:cc="http://creativecommons.org/ns#" xmlns:sodipodi="http://sodipodi.sourceforge.net/DTD/sodipodi-0.dtd" inkscape:version="0.47 r22583" inkscape:export-ydpi="204.75" inkscape:output_extension="org.inkscape.output.svg.inkscape" inkscape:export-xdpi="204.75" sodipodi:version="0.32" sodipodi:docname="icon_letter_mail.svg" inkscape:export-filename="D:\Cliparts\icon_letter_mail.png" sodipodi:modified="TRUE"
	 xmlns="http://www.w3.org/2000/svg" xmlns:xlink="http://www.w3.org/1999/xlink" x="0px" y="0px" viewBox="0 0 100 100"
	 enable-background="new 0 0 100 100" xml:space="preserve">
<title  id="title2888">Icon Letter Mail</title>
<sodipodi:namedview  width="60px" height="49px" inkscape:window-width="1280" inkscape:pageopacity="0.0" inkscape:pageshadow="2" inkscape:window-height="977" inkscape:cy="14.935765" bordercolor="#666666" pagecolor="#ffffff" gridtolerance="10000" inkscape:zoom="8.3747959" showgrid="true" borderopacity="1.0" inkscape:cx="19.642801" id="base" inkscape:window-y="-4" inkscape:window-x="-4" inkscape:document-units="px" inkscape:snap-global="false" inkscape:window-maximized="1" inkscape:grid-bbox="true" inkscape:grid-points="true" inkscape:current-layer="layer1">
	
		<inkscape:grid  color="#0000ff" type="xygrid" snapvisiblegridlinesonly="true" spacingx="1px" empcolor="#0000ff" spacingy="1px" empspacing="4" empopacity="0.4" opacity=".2" enabled="true" originx="0px" originy="0px" visible="true" id="GridFromPre046Settings">
		</inkscape:grid>
</sodipodi:namedview>
<g id="layer1" transform="translate(-17,42)" inkscape:groupmode="layer" inkscape:label="Calque 1">
	<path id="rect3174" sodipodi:nodetypes="ccscccccccccccccccccccccccccccc" fill="#7A7A7A" d="M27.7-27.7C21.8-27.7,17-22.9,17-17
		c0.1,16.2,0,33.4,0,50c0,5.7,4.4,10.3,10,10.7l79.7,0.1c5.7-0.2,10.3-4.9,10.3-10.7v-51.8c-0.9-5.1-5.3-8.9-10.5-8.9
		C80.2-27.7,54-27.7,27.7-27.7L27.7-27.7z M27.5-22.1h79.2L68.5,16.3c-0.7,0.7-1.8,0.7-2.5,0L27.5-22.1L27.5-22.1z M111.6-19.3v52
		c0,3.1-1.1,4.8-3.3,5.5L81.3,11L111.6-19.3L111.6-19.3z M23-19.1l29.9,29.9L25.5,38c-1.9-0.6-2.5-2.1-2.6-4.2L23-19.1L23-19.1z
		 M56.6,14.5l9.3,9.4c0.7,0.7,1.8,0.7,2.5,0l9-9L101,38.4H32.7L56.6,14.5L56.6,14.5z"/>
</g>
</svg>
